<svg xmlns="http://www.w3.org/2000/svg" version="1.1" xmlns:xlink="http://www.w3.org/1999/xlink" xmlns:svgjs="http://svgjs.dev/svgjs" width="1440" height="560" preserveAspectRatio="none" viewBox="0 0 1440 560"><g mask="url(&quot;#SvgjsMask2131&quot;)" fill="none"><rect width="1440" height="560" x="0" y="0" fill="url(&quot;#SvgjsRadialGradient2132&quot;)"></rect><path d="M983.55 23.22 a99.97 99.97 0 1 0 199.94 0 a99.97 99.97 0 1 0 -199.94 0z" fill="rgba(184, 160, 239, 1)" class="triangle-float3"></path><path d="M904.89 166.86 a178.19 178.19 0 1 0 356.38 0 a178.19 178.19 0 1 0 -356.38 0z" fill="rgba(184, 160, 239, 1)" class="triangle-float3"></path><path d="M605.66 489.26 a102.09 102.09 0 1 0 204.18 0 a102.09 102.09 0 1 0 -204.18 0z" fill="rgba(184, 160, 239, 1)" class="triangle-float1"></path><path d="M363.047,447.393C407.37,449.811,457.354,444.617,480.444,406.706C504.148,367.786,489.731,318.336,464.937,280.101C442.482,245.473,404.268,227.707,363.047,225.669C317.183,223.401,264.916,229.247,242.069,269.08C219.287,308.798,240.212,357.114,265.919,395.004C288.054,427.63,323.68,445.245,363.047,447.393" fill="rgba(184, 160, 239, 1)" class="triangle-float3"></path></g><defs><mask id="SvgjsMask2131"><rect width="1440" height="560" fill="#ffffff"></rect></mask><radialGradient cx="100%" cy="50%" r="1466.97" gradientUnits="userSpaceOnUse" id="SvgjsRadialGradient2132"><stop stop-color="rgba(139, 92, 246, 1)" offset="0"></stop><stop stop-color="rgba(139, 92, 246, 0.14)" offset="0.16"></stop></radialGradient><style>
                @keyframes float1 {
                    0%{transform: translate(0, 0)}
                    50%{transform: translate(-10px, 0)}
                    100%{transform: translate(0, 0)}
                }

                .triangle-float1 {
                    animation: float1 5s infinite;
                }

                @keyframes float2 {
                    0%{transform: translate(0, 0)}
                    50%{transform: translate(-5px, -5px)}
                    100%{transform: translate(0, 0)}
                }

                .triangle-float2 {
                    animation: float2 4s infinite;
                }

                @keyframes float3 {
                    0%{transform: translate(0, 0)}
                    50%{transform: translate(0, -10px)}
                    100%{transform: translate(0, 0)}
                }

                .triangle-float3 {
                    animation: float3 6s infinite;
                }
            </style></defs></svg>