<svg xmlns="http://www.w3.org/2000/svg" version="1.1" xmlns:xlink="http://www.w3.org/1999/xlink" xmlns:svgjs="http://svgjs.dev/svgjs" width="1920" height="1080" preserveAspectRatio="none" viewBox="0 0 1920 1080"><g mask="url(&quot;#SvgjsMask2358&quot;)" fill="none"><rect width="1920" height="1080" x="0" y="0" fill="url(&quot;#SvgjsRadialGradient2359&quot;)"></rect><path d="M1292.806646933114 367.06951963341584L1329.8735321319853 133.0384170647571 1095.8424295633265 95.97153186588599 1058.7755443644553 330.0026344345447z" fill="rgba(28, 83, 142, 0.4)" class="triangle-float3"></path><path d="M367.9076895827274 490.456879316885L417.6143043344018 257.69662157318203 218.64846904133304 318.52658198432357z" fill="rgba(28, 83, 142, 0.4)" class="triangle-float2"></path><path d="M1702.0382415619079 581.405700553344L1718.40202960055 697.8401025070107 1884.8717385117288 615.0772194722141z" fill="rgba(28, 83, 142, 0.4)" class="triangle-float2"></path><path d="M683.899,1140.859C728.339,1139.506,763.766,1106.866,784.422,1067.495C803.534,1031.066,804.363,987.392,782.795,952.361C762.193,918.901,723.193,904.35,683.899,904.23C644.36,904.109,605.688,918.725,583.949,951.752C559.833,988.39,551.685,1035.18,572.181,1073.959C593.92,1115.089,637.399,1142.275,683.899,1140.859" fill="rgba(28, 83, 142, 0.4)" class="triangle-float1"></path><path d="M321.4597563289505 674.4703993699079L296.07077549599865 881.2470547266746 618.9302489476246 815.942198297719z" fill="rgba(28, 83, 142, 0.4)" class="triangle-float2"></path><path d="M925.7079614654965 597.4104286070001L757.8440302946747 539.6102418295304 700.043843517205 707.4741730003523 867.9077746880268 765.2743597778219z" fill="rgba(28, 83, 142, 0.4)" class="triangle-float2"></path></g><defs><mask id="SvgjsMask2358"><rect width="1920" height="1080" fill="#ffffff"></rect></mask><radialGradient cx="100%" cy="50%" r="1994.49" gradientUnits="userSpaceOnUse" id="SvgjsRadialGradient2359"><stop stop-color="rgba(139, 92, 246, 0.51)" offset="0"></stop><stop stop-color="rgba(93, 0, 233, 0)" offset="1"></stop></radialGradient><style>
                @keyframes float1 {
                    0%{transform: translate(0, 0)}
                    50%{transform: translate(-10px, 0)}
                    100%{transform: translate(0, 0)}
                }

                .triangle-float1 {
                    animation: float1 5s infinite;
                }

                @keyframes float2 {
                    0%{transform: translate(0, 0)}
                    50%{transform: translate(-5px, -5px)}
                    100%{transform: translate(0, 0)}
                }

                .triangle-float2 {
                    animation: float2 4s infinite;
                }

                @keyframes float3 {
                    0%{transform: translate(0, 0)}
                    50%{transform: translate(0, -10px)}
                    100%{transform: translate(0, 0)}
                }

                .triangle-float3 {
                    animation: float3 6s infinite;
                }
            </style></defs></svg>