<svg xmlns="http://www.w3.org/2000/svg" xmlns:xlink="http://www.w3.org/1999/xlink" version="1.1" x="0px" y="0px" viewBox="0 0 128 160" style="enable-background:new 0 0 128 128;" xml:space="preserve"><g><path d="M68.8,44.9c-0.2-1-0.8-1.9-1.7-2.3c-3-1.5-9.5-3.7-9.5-3.7v-2.2l0.2-0.1c1.3-0.9,2.1-2.4,2.4-4l0-0.2h0.2   c1,0,1.9-0.6,2.2-1.5c0.2-0.4,0.3-0.8,0.3-1.3c0-0.3-0.1-0.6-0.2-0.9c-0.1-0.3-0.2-0.6-0.5-0.8l-0.6-0.4l0.1-0.7   c1.1-4.7-2.6-9-7.5-9.1c-0.1,0-0.2,0-0.4,0c-0.1,0-0.2,0-0.4,0c-4.9,0.1-8.6,4.4-7.5,9.1l0.1,0.7L45.6,28c-0.2,0.2-0.4,0.5-0.5,0.8   C45,29,45,29.3,45,29.6c0,0.5,0.1,0.9,0.3,1.3c0.4,0.9,1.2,1.5,2.2,1.5h0.2l0,0.2c0.3,1.6,1.1,3,2.4,4l0.2,0.1v2.2   c0,0-6.5,2.2-9.5,3.7c-0.9,0.5-1.5,1.3-1.7,2.3c-0.5,3-0.6,8-0.6,8H54h15.5C69.4,52.8,69.3,47.8,68.8,44.9z"/><path d="M96.9,94v22.7c0,0.3-0.2,0.5-0.5,0.5H11.5c-0.3,0-0.5-0.2-0.5-0.5V11.3c0-0.3,0.2-0.5,0.5-0.5h84.9c0.3,0,0.5,0.2,0.5,0.5   V44l7.8-10.6c0.2-0.2,0.4-0.5,0.6-0.7V11.3c0-4.9-4-8.9-8.9-8.9H11.5c-4.9,0-8.9,4-8.9,8.9v105.4c0,4.9,4,8.9,8.9,8.9h84.9   c4.9,0,8.9-4,8.9-8.9V82.9L98,92.7C97.7,93.2,97.3,93.6,96.9,94z"/><path d="M66.5,93.8H44.4c-1,0-1.9,0.8-1.9,1.9c0,1,0.8,1.9,1.9,1.9h22.1c1,0,1.9-0.8,1.9-1.9C68.4,94.7,67.6,93.8,66.5,93.8z"/><path d="M66.5,80.8H23.4c-1,0-1.9,0.8-1.9,1.9c0,1,0.8,1.9,1.9,1.9h43.1c1,0,1.9-0.8,1.9-1.9C68.4,81.6,67.6,80.8,66.5,80.8z"/><path d="M66.5,67.7H23.4c-1,0-1.9,0.8-1.9,1.9s0.8,1.9,1.9,1.9h43.1c1,0,1.9-0.8,1.9-1.9S67.6,67.7,66.5,67.7z"/><path d="M121.8,35.3c-1.9-1.4-4.1-1.9-6.4-1.6c-2.3,0.3-4.3,1.6-5.7,3.4L79.1,78.7c-0.2,0.2-0.3,0.5-0.4,0.8l-3.6,16   c-0.2,0.8,0.1,1.6,0.8,2.1c0.3,0.2,0.6,0.3,1,0.4c0.4,0,0.9,0,1.3-0.3l14.2-8.2c0.2-0.1,0.5-0.3,0.6-0.6l30.7-41.6   C126.5,43.5,125.7,38.1,121.8,35.3z M81.4,91.1l-0.9-0.9l1.5-6.8l5.5,4.1L81.4,91.1z"/></g><text x="0" y="143" fill="#000000" font-size="5px" font-weight="bold" font-family="'Helvetica Neue', Helvetica, Arial-Unicode, Arial, Sans-serif"></text><text x="0" y="148" fill="#000000" font-size="5px" font-weight="bold" font-family="'Helvetica Neue', Helvetica, Arial-Unicode, Arial, Sans-serif"></text></svg>